<svg xmlns="http://www.w3.org/2000/svg" width="24" height="24" fill="white" viewBox="0 0 24 24">
  <path d="M12 2.163c3.204 0 3.584.012 4.85.07 1.17.056 1.97.24 2.428.403a4.918 4.918 0 011.675 1.093 4.918 4.918 0 011.093 1.675c.163.458.347 1.258.403 2.428.058 1.266.07 1.646.07 4.85s-.012 3.584-.07 4.85c-.056 1.17-.24 1.97-.403 2.428a4.918 4.918 0 01-1.093 1.675 4.918 4.918 0 01-1.675 1.093c-.458.163-1.258.347-2.428.403-1.266.058-1.646.07-4.85.07s-3.584-.012-4.85-.07c-1.17-.056-1.97-.24-2.428-.403a4.918 4.918 0 01-1.675-1.093 4.918 4.918 0 01-1.093-1.675c-.163-.458-.347-1.258-.403-2.428C2.175 15.747 2.163 15.367 2.163 12s.012-3.584.07-4.85c.056-1.17.24-1.97.403-2.428a4.918 4.918 0 011.093-1.675 4.918 4.918 0 011.675-1.093c.458-.163 1.258-.347 2.428-.403C8.416 2.175 8.796 2.163 12 2.163zm0-2.163C8.741 0 8.332.014 7.052.072 5.77.13 4.735.308 3.903.553a6.773 6.773 0 00-2.48 1.64 6.773 6.773 0 00-1.64 2.48C-.308 5.265-.13 6.3-.072 7.582-.014 8.862 0 9.271 0 12c0 2.729.014 3.138.072 4.418.058 1.282.236 2.317.481 3.149a6.773 6.773 0 001.64 2.48 6.773 6.773 0 002.48 1.64c.832.245 1.867.423 3.149.481C8.862 23.986 9.271 24 12 24s3.138-.014 4.418-.072c1.282-.058 2.317-.236 3.149-.481a6.773 6.773 0 002.48-1.64 6.773 6.773 0 001.64-2.48c.245-.832.423-1.867.481-3.149.058-1.28.072-1.689.072-4.418s-.014-3.138-.072-4.418c-.058-1.282-.236-2.317-.481-3.149a6.773 6.773 0 00-1.64-2.48 6.773 6.773 0 00-2.48-1.64c-.832-.245-1.867-.423-3.149-.481C15.138.014 14.729 0 12 0z"/>
  <path d="M12 5.838a6.162 6.162 0 100 12.324 6.162 6.162 0 000-12.324zm0 10.162a3.999 3.999 0 110-7.998 3.999 3.999 0 010 7.998z"/>
  <circle cx="18.406" cy="5.594" r="1.44"/>
</svg>
