<svg xmlns="http://www.w3.org/2000/svg" width="24" height="24" fill="white" viewBox="0 0 24 24">
  <path d="M12.706 0h3.838c.078.84.345 1.651.779 2.376.628 1.047 1.566 1.863 2.663 2.348a8.1 8.1 0 002.99.585v3.879a11.949 11.949 0 01-3.94-.672v7.508c0 2.647-1.408 5.106-3.705 6.462-1.028.61-2.21.934-3.413.914-2.084-.037-4.071-.972-5.371-2.537C4.073 19.62 3.53 17.437 3.878 15.32c.374-2.336 1.964-4.352 4.153-5.23 1.37-.553 2.899-.582 4.293-.08v4.037c-.792-.513-1.829-.614-2.715-.267-1.066.424-1.839 1.437-1.982 2.575-.187 1.145.27 2.379 1.187 3.102.634.511 1.468.74 2.265.622.895-.11 1.74-.607 2.2-1.39.347-.566.514-1.222.509-1.88V0z"/>
</svg>
